<?xml version="1.0" standalone="no"?>
<!DOCTYPE svg PUBLIC "-//W3C//DTD SVG 20010904//EN"
 "http://www.w3.org/TR/2001/REC-SVG-20010904/DTD/svg10.dtd">
<svg version="1.0" xmlns="http://www.w3.org/2000/svg"
 width="1024.000000pt" height="1024.000000pt" viewBox="0 0 1024.000000 1024.000000"
 preserveAspectRatio="xMidYMid meet">
<metadata>
Created by potrace 1.14, written by Peter Selinger 2001-2017
</metadata>
<g transform="translate(0.000000,1024.000000) scale(0.100000,-0.100000)"
fill="#000000" stroke="none">
<path d="M0 5120 l0 -5120 5120 0 5120 0 0 5120 0 5120 -5120 0 -5120 0 0
-5120z m5450 2670 c278 -139 387 -189 403 -185 16 4 29 -1 42 -15 19 -21 19
-23 2 -52 -15 -27 -17 -69 -17 -434 l0 -404 25 0 c34 0 65 -33 65 -71 0 -45
-16 -67 -55 -75 l-35 -6 0 -317 c0 -233 3 -320 12 -329 8 -8 52 -12 130 -12
l118 0 0 -660 0 -660 -105 0 -105 0 0 398 c0 274 5 440 15 537 8 77 14 149 14
160 0 11 -35 -99 -77 -245 -42 -146 -81 -271 -85 -277 -6 -9 -38 -13 -102 -13
l-94 0 -22 73 c-12 39 -43 144 -69 231 -26 88 -51 161 -56 163 -6 2 -4 -45 3
-114 7 -71 12 -277 12 -515 l1 -398 -105 0 -105 0 -2 460 -3 459 -68 -39 c-72
-42 -95 -48 -115 -28 -9 9 -15 9 -24 0 -28 -28 -98 -6 -98 31 0 28 -39 52 -97
62 -27 4 -43 12 -43 21 0 8 -57 42 -135 81 -130 65 -137 67 -162 53 -14 -8
-35 -28 -47 -43 -20 -28 -21 -38 -21 -395 l0 -367 24 -34 c59 -83 218 -96 293
-25 35 35 45 67 53 182 l7 92 -116 0 -116 0 0 100 0 100 231 0 231 0 -4 -212
c-5 -246 -16 -290 -94 -377 -82 -91 -183 -131 -329 -131 -135 1 -219 30 -304
106 -75 68 -104 141 -111 285 l-5 115 -127 -74 -128 -74 0 -174 0 -174 -139 0
-139 0 -27 79 -26 80 -77 -46 c-42 -25 -96 -56 -119 -70 -27 -16 -50 -22 -63
-18 -14 5 -20 2 -20 -9 0 -14 -16 -16 -105 -16 l-105 0 0 64 0 63 -177 83
c-98 46 -319 152 -492 237 -208 101 -325 153 -346 153 -33 0 -45 13 -45 50 0
9 7 23 15 30 13 11 15 116 15 833 0 750 -1 822 -17 839 -13 15 -14 23 -4 44
10 22 16 25 44 21 25 -4 47 4 102 38 65 39 255 150 670 390 94 54 179 104 190
112 19 11 37 5 165 -58 80 -39 260 -125 400 -191 140 -66 338 -161 440 -211
133 -65 196 -91 224 -91 53 -1 66 -23 43 -71 -15 -32 -17 -86 -17 -560 0 -289
3 -525 6 -525 3 0 18 8 32 18 55 38 116 55 217 60 248 12 410 -101 447 -310 7
-41 7 -63 0 -70 -7 -7 0 -19 23 -40 l34 -29 43 22 c24 12 60 33 81 46 l37 23
0 175 0 176 137 -3 136 -3 20 -70 c10 -38 23 -74 27 -78 4 -5 46 15 91 43 134
84 157 101 163 115 3 8 4 380 3 827 l-2 813 -383 193 -382 192 -78 -42 c-127
-69 -542 -307 -568 -326 -22 -16 -23 -23 -24 -118 l0 -101 292 -142 292 -143
29 17 c17 10 50 19 75 21 38 2 49 -1 73 -26 61 -61 15 -170 -71 -170 -50 0
-100 44 -100 88 0 15 -63 49 -297 164 -252 123 -299 143 -305 129 -6 -13 -8
-13 -14 6 -4 16 -42 40 -135 87 l-128 65 -41 -17 -42 -17 5 -107 c3 -82 1
-108 -8 -108 -18 0 -25 34 -25 133 0 83 -1 88 -24 97 -57 21 -77 117 -33 158
75 70 187 27 187 -74 0 -29 6 -33 118 -87 l117 -58 3 87 c2 77 0 89 -18 106
-11 10 -20 25 -20 32 0 22 30 40 61 38 26 -2 246 117 599 324 41 24 76 44 77
44 2 0 174 -86 383 -190z m1666 -609 c80 -49 56 -172 -36 -187 -24 -4 -36 -11
-36 -22 -1 -10 -4 -29 -9 -44 -7 -26 -5 -28 23 -28 17 0 34 5 37 10 3 6 13 10
22 10 21 0 953 -468 977 -491 5 -4 18 -4 28 2 43 23 86 -25 54 -60 -13 -15
-15 -109 -16 -818 -1 -648 1 -805 12 -822 19 -30 0 -55 -48 -62 -25 -3 -163
-76 -384 -201 -190 -107 -364 -205 -387 -217 -42 -21 -43 -21 -43 -2 0 24 46
53 360 230 311 176 414 237 428 253 7 10 13 255 18 818 7 782 6 805 -12 821
-30 26 -992 509 -1013 509 -11 0 -40 -16 -65 -35 -26 -19 -51 -35 -57 -35 -14
0 -587 -327 -629 -359 -50 -39 -56 -42 -73 -35 -40 15 -24 74 19 74 28 0 147
64 483 258 l204 118 21 66 c21 64 21 66 3 77 -10 7 -25 28 -33 47 -23 54 -4
100 50 125 52 23 64 23 102 0z m-142 -517 c3 -8 2 -12 -4 -9 -6 3 -10 10 -10
16 0 14 7 11 14 -7z m25 -41 c-9 -10 -5 -12 20 -9 23 2 29 0 21 -9 -7 -8 -2
-10 20 -7 20 3 30 0 30 -9 0 -7 3 -10 6 -6 3 3 67 -24 142 -59 118 -56 142
-64 174 -59 32 6 41 3 63 -19 33 -33 30 -71 -7 -99 -44 -33 -107 -4 -109 51 0
25 -15 34 -195 122 -107 52 -194 97 -194 100 0 11 9 17 25 17 11 0 12 -4 4
-14z m424 -744 c40 -43 37 -91 -7 -135 -59 -59 -142 -43 -167 33 -6 21 -18 44
-26 51 -18 19 -17 43 2 35 9 -3 24 2 35 12 26 23 91 45 115 39 11 -3 32 -19
48 -35z m-263 -89 l0 -100 -130 0 -130 0 0 -460 0 -460 130 0 130 0 0 -75 c0
-73 1 -75 31 -90 28 -15 34 -15 74 1 105 40 183 -49 125 -143 -32 -53 -109
-57 -160 -8 l-26 25 -232 -113 -232 -113 285 -142 c219 -109 292 -141 311
-136 14 4 31 1 39 -6 19 -16 19 -56 0 -64 -13 -5 -15 -74 -15 -539 0 -471 2
-536 16 -547 9 -8 14 -25 12 -44 -3 -28 -6 -31 -38 -32 -37 -1 -39 -2 -454
-235 -185 -104 -212 -116 -235 -107 -14 5 -163 80 -331 166 -168 86 -317 157
-331 158 -14 1 -31 4 -38 8 -15 10 -13 47 4 70 13 17 15 95 15 514 0 450 -2
497 -17 523 -21 36 -9 62 31 67 23 3 37 -11 19 -20 -12 -5 0 -1095 12 -1106
19 -18 643 -332 660 -332 26 0 569 304 613 343 l22 20 0 549 0 548 -272 137
c-330 168 -369 185 -385 171 -9 -7 -11 -4 -8 14 3 12 8 24 12 26 5 1 123 60
263 131 249 126 283 150 248 172 -7 5 -185 9 -395 9 l-383 0 0 100 0 100 130
0 130 0 0 25 c0 22 -18 34 -170 110 -93 47 -180 85 -192 85 -36 0 -50 14 -46
46 2 23 9 30 30 32 19 2 30 -3 38 -18 6 -12 77 -53 170 -100 88 -44 162 -80
165 -80 3 0 5 185 5 410 l0 410 -130 0 -130 0 0 100 0 100 380 0 380 0 0 -100z
m-1994 -1133 c21 -19 27 -32 26 -61 -2 -47 -7 -55 -48 -72 -42 -18 -78 -10
-98 22 -56 85 44 176 120 111z m-2520 -95 c52 -42 57 -96 13 -147 -25 -29 -38
-35 -70 -35 -75 0 -108 30 -111 102 -1 35 4 45 30 70 38 33 104 38 138 10z
m205 -142 c26 -27 51 -50 56 -51 26 -2 57 -16 248 -108 116 -57 227 -108 248
-114 38 -12 51 -42 23 -53 -13 -5 -397 178 -523 249 -51 29 -70 35 -98 30 -57
-9 -100 48 -63 85 25 25 61 13 109 -38z m3300 -118 c10 -9 20 -32 24 -49 6
-28 2 -38 -23 -63 -39 -38 -83 -40 -117 -5 -37 36 -34 86 7 120 35 30 79 29
109 -3z m-1000 -75 c3 -5 9 -8 13 -7 3 0 14 -4 24 -10 23 -13 -42 -4 -69 11
-11 5 -19 6 -19 1 0 -9 -74 -52 -517 -301 -190 -107 -220 -129 -209 -157 5
-14 10 -13 33 10 46 46 113 26 129 -40 7 -27 -2 -40 -50 -69 -11 -7 -20 -32
-26 -73 -9 -63 -5 -96 10 -87 4 2 16 -2 26 -10 10 -8 27 -15 37 -15 9 0 17 -5
17 -11 0 -6 6 -9 14 -6 8 3 13 0 12 -8 -4 -26 -13 -26 -70 -1 -40 18 -58 22
-61 13 -2 -7 -13 -79 -25 -162 -12 -82 -26 -168 -32 -190 -6 -24 -13 -209 -15
-456 l-5 -416 376 -192 376 -192 335 188 c185 103 346 197 360 208 l25 20 6
780 c3 429 2 785 -3 791 -4 6 -149 82 -320 168 -284 142 -313 159 -313 181 0
14 2 25 5 25 3 0 141 -68 308 -152 230 -116 311 -152 342 -152 31 -1 42 -6 52
-26 11 -22 10 -27 -7 -39 -20 -13 -20 -25 -20 -788 0 -675 2 -776 15 -789 32
-33 2 -79 -44 -69 -23 5 -91 -30 -386 -196 l-358 -203 -221 112 c-122 61 -291
148 -376 192 -94 49 -162 79 -174 76 -49 -12 -78 50 -36 76 20 13 20 24 20
638 l0 625 -108 47 c-59 26 -115 50 -124 54 -17 6 -18 -4 -18 -122 l0 -129 29
-27 c59 -56 55 -130 -10 -164 -40 -20 -71 -17 -113 11 l-36 24 -203 -113
c-111 -62 -223 -125 -249 -140 l-47 -27 -328 166 c-180 92 -332 171 -337 176
-6 5 -23 9 -38 9 -21 0 -32 7 -40 26 -11 23 -10 29 10 44 22 18 22 23 23 262
0 133 2 239 4 233 2 -5 6 -82 9 -170 8 -264 14 -328 34 -346 17 -17 115 -69
478 -253 l191 -97 160 90 c88 49 202 111 254 137 52 26 111 58 132 71 l37 23
0 168 0 169 -202 92 c-330 151 -338 155 -338 163 0 12 28 10 35 -2 4 -6 15 -8
25 -5 12 4 76 -19 167 -59 81 -35 184 -80 228 -99 l80 -34 6 151 c4 83 7 172
8 199 1 34 5 47 16 47 13 0 15 -30 15 -210 l0 -210 43 -20 c23 -10 79 -35 124
-54 l82 -34 3 101 c3 86 0 106 -15 128 -15 21 -17 31 -8 47 13 25 38 34 60 22
12 -6 24 -5 37 4 26 18 532 301 619 347 60 31 74 34 95 25 14 -6 28 -14 31
-19z m-511 -799 c0 -5 6 -8 13 -6 19 3 87 -22 87 -33 0 -6 4 -8 9 -4 5 3 16
-2 24 -10 9 -8 22 -15 30 -15 7 0 17 -3 21 -7 3 -4 12 -8 19 -9 7 -1 41 -14
76 -29 l64 -26 26 25 c54 51 149 23 167 -49 16 -64 -58 -135 -126 -120 -34 7
-69 43 -79 81 -6 23 -19 33 -72 54 -35 15 -103 46 -151 68 -48 23 -91 42 -96
42 -5 0 -15 7 -22 15 -7 8 -21 15 -31 15 -24 0 -25 17 -1 22 22 5 42 -1 42
-14z"/>
<path d="M2655 7219 c-248 -143 -465 -272 -483 -285 l-32 -25 2 -837 3 -837
310 -155 c346 -174 653 -320 670 -320 3 0 5 254 5 565 l0 565 139 0 139 0 91
-267 c51 -148 129 -375 173 -505 45 -131 83 -236 86 -234 2 2 -1 78 -7 168 -6
89 -11 315 -11 501 l0 337 105 0 105 0 0 -455 c0 -250 3 -455 6 -455 4 0 62
32 130 71 l123 71 3 251 3 252 28 60 c15 33 35 67 43 76 12 13 14 97 12 580
l-3 564 -160 80 c-88 44 -299 147 -470 229 -170 82 -363 175 -428 208 -65 32
-121 58 -126 58 -4 0 -209 -117 -456 -261z m535 -959 c29 -29 27 -84 -5 -115
-35 -35 -76 -33 -109 6 -14 17 -26 34 -26 39 0 20 22 66 37 78 26 19 80 15
103 -8z m-315 -912 c35 -30 36 -77 4 -115 -21 -25 -29 -28 -59 -22 -69 15 -96
97 -44 138 34 27 66 27 99 -1z"/>
<path d="M5810 5815 c-6 -8 -40 -30 -75 -49 -35 -19 -81 -46 -103 -60 l-40
-25 49 -162 c27 -89 49 -170 49 -180 0 -11 5 -19 10 -19 6 0 10 8 10 17 0 15
120 436 137 479 7 19 -21 18 -37 -1z"/>
<path d="M4700 5656 c47 -24 87 -42 89 -40 10 10 -56 65 -88 74 -86 24 -86 9
-1 -34z"/>
<path d="M3324 5545 c3 -27 9 -240 12 -472 6 -393 8 -423 25 -428 11 -4 58 18
128 60 61 36 111 68 111 71 0 9 -273 809 -277 814 -3 3 -3 -17 1 -45z"/>
<path d="M4370 3636 c0 -66 3 -77 21 -86 11 -7 23 -10 25 -8 2 3 7 32 10 65 6
59 6 60 -25 82 l-31 22 0 -75z"/>
<path d="M4371 3378 l1 -133 13 90 c6 50 15 104 19 122 6 26 4 34 -13 43 -21
11 -21 9 -20 -122z"/>
</g>
</svg>
